<svg
                className="w-14 h-14 dark:fill-white fill-[#433061] drop-shadow-xl"
                xmlns="http://www.w3.org/2000/svg"
                width="737"
                height="804"
                viewBox="0 0 737 804"
            >
                <path
                    d="M461.879 236.356L413.071 223.636C411.495 222.914 409.971 221.369 408.5 219.001C393.219 194.389 377.52 169.164 361.403 143.325L360.789 142.242C361.138 142.128 361.32 142.037 361.338 141.967C373.388 94.8951 385.461 47.8708 397.555 0.89429C397.576 0.817052 397.622 0.748912 397.686 0.70035C397.75 0.651789 397.828 0.625488 397.908 0.625488C397.988 0.625488 398.066 0.651789 398.129 0.70035C398.193 0.748912 398.239 0.817052 398.26 0.89429L461.879 236.356Z"
                    fill="#F08D32"
                ></path>
                <path
                    d="M360.789 142.242L361.403 143.325L355.239 167.014C345.53 161.877 336.244 162.3 327.38 168.281L314.189 145.676C314.116 145.553 314.02 145.446 313.905 145.36C313.791 145.275 313.66 145.214 313.522 145.179C313.383 145.145 313.239 145.139 313.098 145.162C312.956 145.184 312.821 145.235 312.7 145.31L291.307 158.669C289.025 148.144 287.593 138.394 287.01 129.418C286.958 128.582 287.145 127.794 287.571 127.054C297.663 109.46 307.641 92.1049 317.506 74.9893C317.584 74.8525 317.695 74.7383 317.83 74.6579C317.965 74.5776 318.119 74.534 318.276 74.5313C318.433 74.5287 318.588 74.5671 318.726 74.6429C318.863 74.7186 318.979 74.8291 319.061 74.9632L360.789 142.242ZM281.106 165.656C277.31 167.005 274.737 168.259 273.388 169.417C268.877 173.308 263.736 176.212 257.963 178.127L280.728 139.147C281.415 137.98 281.742 138.071 281.707 139.421L281.106 165.656Z"
                    fill="#903B83"
                ></path>
                <path
                    d="M361.403 143.325C377.52 169.164 393.219 194.389 408.5 219.001C409.971 221.368 411.495 222.914 413.071 223.636L410.459 223.401L353.593 208.697C361.438 204.205 365.561 197.367 365.961 188.182C366.353 179.319 362.779 172.263 355.239 167.014L361.403 143.325Z"
                    fill="#8C3A2E"
                ></path>
                <path
                    d="M327.38 168.281C303.375 186.955 324.063 222.069 351.477 210.042L363.062 229.63C357.655 232.73 351.947 234.654 345.939 235.402C310.205 239.908 295.473 184.604 291.307 158.669L312.7 145.31C312.821 145.235 312.956 145.184 313.097 145.162C313.239 145.139 313.383 145.145 313.522 145.179C313.66 145.214 313.791 145.275 313.905 145.36C314.02 145.446 314.116 145.553 314.189 145.676L327.38 168.281Z"
                    fill="#4F2F78"
                ></path>
                <path
                    d="M281.106 165.656C281.124 198.381 285.482 230.423 294.18 261.781C294.316 262.248 294.307 262.745 294.154 263.204C287.815 282.226 283.039 301.701 279.826 321.629C279.748 322.099 279.561 322.517 279.265 322.882C278.446 323.91 278.316 324.158 278.873 323.627L200.953 277.947C201.641 276.232 202.142 275.105 202.455 274.565C218.198 247.212 233.962 219.867 249.748 192.531C252.943 186.994 254.955 183.041 255.782 180.673L257.963 178.127C263.736 176.212 268.877 173.308 273.387 169.417C274.737 168.259 277.31 167.005 281.106 165.656Z"
                    fill="#4F2F78"
                ></path>
                <path
                    d="M255.782 180.673C254.955 183.041 252.943 186.994 249.748 192.531C233.962 219.867 218.197 247.212 202.455 274.565C202.142 275.105 201.641 276.232 200.953 277.947C200.544 277.982 200.27 278.2 200.13 278.6C200.069 278.156 199.9 277.856 199.621 277.699C183.156 268.132 166.377 258.425 149.285 248.578C148.345 248.039 148.332 247.486 149.246 246.92L255.782 180.673Z"
                    fill="#4A73AB"
                ></path>
                <path
                    d="M353.593 208.697L410.459 223.401L420.398 238.445C420.471 238.558 420.52 238.684 420.544 238.816C420.568 238.948 420.565 239.083 420.536 239.214C420.506 239.344 420.451 239.467 420.374 239.575C420.297 239.683 420.198 239.774 420.085 239.842L401.539 251.125C400.633 251.673 400.15 251.417 400.089 250.354L399.932 247.873C400.498 244.696 401.238 241.566 402.152 238.484C402.431 237.535 402.335 236.891 401.865 236.551C401.714 236.446 401.543 236.372 401.362 236.337C401.182 236.301 400.996 236.304 400.816 236.344C400.636 236.385 400.467 236.463 400.32 236.572C400.172 236.682 400.049 236.822 399.958 236.982C394.464 246.689 389.619 256.592 385.422 266.691C384.429 265.785 383.628 264.34 383.019 262.355C382.557 262.556 382.296 262.551 382.235 262.342C382.217 262.273 382.204 262.225 382.196 262.199C376.884 253.031 371.599 244.017 366.34 235.154L372.831 224.89C372.9 224.79 372.931 224.67 372.92 224.549C372.91 224.428 372.858 224.315 372.773 224.229C372.688 224.143 372.576 224.089 372.455 224.076C372.335 224.063 372.214 224.092 372.113 224.159L363.062 229.63L351.477 210.042L353.593 208.697Z"
                    fill="#50372A"
                ></path>
                <path
                    d="M410.459 223.401L413.071 223.636L461.879 236.355C461.478 235.798 461.787 235.824 462.806 236.434C461.996 236.991 461.826 238.092 462.297 239.738C464.848 248.739 468.979 263.909 474.691 285.247C459.724 290.462 444.412 291.785 428.757 289.217C412.779 286.597 403.175 277.499 399.945 261.924C399.353 259.086 399.349 254.403 399.932 247.873L400.089 250.354C400.15 251.416 400.633 251.673 401.539 251.125L420.085 239.842C420.198 239.773 420.297 239.682 420.374 239.574C420.451 239.467 420.506 239.344 420.536 239.214C420.565 239.083 420.568 238.948 420.544 238.816C420.52 238.684 420.471 238.558 420.398 238.445L410.459 223.401ZM459.037 242.023C457.455 240.021 455.482 238.359 453.229 237.134C450.977 235.908 448.489 235.143 445.909 234.881C443.328 234.62 440.706 234.867 438.19 235.609C435.675 236.351 433.316 237.573 431.249 239.206C429.181 240.838 427.445 242.849 426.141 245.124C424.836 247.398 423.987 249.892 423.644 252.462C423.301 255.033 423.469 257.63 424.139 260.104C424.809 262.579 425.968 264.884 427.55 266.886C429.132 268.889 431.105 270.55 433.358 271.776C435.61 273.001 438.098 273.767 440.678 274.028C443.258 274.29 445.881 274.043 448.397 273.301C450.912 272.559 453.271 271.337 455.338 269.704C457.406 268.072 459.142 266.061 460.446 263.786C461.751 261.511 462.599 259.018 462.943 256.447C463.286 253.877 463.118 251.28 462.448 248.805C461.778 246.33 460.619 244.026 459.037 242.023Z"
                    fill="#5A6735"
                ></path>
                <path
                    d="M366.34 235.154C371.599 244.017 376.884 253.031 382.196 262.199C382.204 262.225 382.217 262.273 382.235 262.342C382.296 262.551 382.557 262.556 383.019 262.355C382.54 262.608 382.278 262.704 382.235 262.643C370.567 269.625 358.451 276.75 345.887 284.02C349.71 265.79 356.527 249.501 366.34 235.154Z"
                    fill="#4F2F78"
                ></path>
                <path
                    d="M462.806 236.434L658.624 286.71C660.122 287.093 660.122 287.485 658.624 287.885L488.549 333.59L487.621 333.355L475.932 289.779L505.305 276.994C505.993 276.689 506.42 276.171 506.585 275.44C506.681 275.005 506.476 274.648 505.971 274.369C505.792 274.272 505.594 274.216 505.392 274.207C505.191 274.198 504.991 274.236 504.809 274.317C494.77 278.661 484.731 282.305 474.691 285.247C468.979 263.909 464.848 248.739 462.297 239.738C461.826 238.092 461.996 236.991 462.806 236.434Z"
                    fill="#38A276"
                ></path>
                <path
                    d="M383.019 262.355C383.628 264.34 384.429 265.785 385.422 266.691C372.518 298.006 368.129 332.076 374.19 365.493C374.999 369.942 375.914 374.368 376.932 378.774C377.106 379.548 376.845 379.744 376.149 379.361C373.85 378.116 371.595 376.858 369.383 375.587C367.485 374.499 365.63 372.453 363.819 369.45C351.917 349.836 345.308 330.012 343.993 309.98C343.462 301.91 344.093 293.257 345.887 284.02C358.451 276.75 370.567 269.625 382.235 262.643C382.278 262.704 382.54 262.608 383.019 262.355Z"
                    fill="#4A73AB"
                ></path>
                <path
                    d="M200.953 277.947L278.873 323.627L122.354 416.187C120.769 417.118 120.439 416.787 121.361 415.194L200.13 278.6C200.27 278.2 200.544 277.982 200.953 277.947Z"
                    fill="#903B83"
                ></path>
                <path
                    d="M475.932 289.779L487.621 333.355L435.091 347.994C434.752 348.09 434.547 348.308 434.478 348.647C434.451 348.795 434.456 348.939 434.491 349.078C433.925 349.4 433.441 349.213 433.041 348.517C426.432 336.912 421.974 329.277 419.667 325.612C426.632 318.899 434.051 313.04 441.922 308.035C452.789 301.131 464.125 295.046 475.932 289.779Z"
                    fill="#5A6735"
                ></path>
                <path
                    d="M350.524 363.547C334.268 355.468 321.028 348.012 310.806 341.178C307.611 339.036 305.203 337.656 303.584 337.038C308.277 331.101 313.401 325.799 318.956 321.132C319.021 321.076 319.098 321.034 319.182 321.011C319.265 320.988 319.353 320.983 319.439 320.998C319.525 321.013 319.607 321.047 319.679 321.097C319.752 321.148 319.812 321.213 319.857 321.289C328.199 335.497 338.421 349.583 350.524 363.547ZM419.667 325.612C421.974 329.277 426.432 336.912 433.041 348.517C433.441 349.213 433.925 349.4 434.491 349.078L446.715 369.946L490.469 443.832C491.322 445.268 491.026 445.573 489.58 444.746C479.219 438.852 469.537 433.276 460.534 428.018C458.091 426.581 457.582 424.035 455.91 421.985C434.386 395.658 419.784 363.103 419.262 328.863C419.253 328.271 419.314 327.705 419.445 327.166C419.575 326.582 419.649 326.064 419.667 325.612Z"
                    fill="#4A73AB"
                ></path>
                <path
                    d="M487.621 333.355L488.549 333.591C488.174 334.156 488.196 335.201 488.614 336.725C492.654 351.664 496.651 366.511 500.604 381.268C500.646 381.433 500.646 381.607 500.602 381.772C500.558 381.937 500.472 382.088 500.352 382.21C500.232 382.332 500.083 382.422 499.919 382.469C499.755 382.517 499.581 382.521 499.415 382.482L446.715 369.946L434.491 349.078C434.456 348.939 434.451 348.795 434.477 348.647C434.547 348.308 434.752 348.09 435.091 347.994L487.621 333.355Z"
                    fill="#F08D32"
                ></path>
                <path
                    d="M303.584 337.038C305.203 337.656 307.611 339.036 310.806 341.178C321.028 348.012 334.267 355.468 350.524 363.547C352.03 364.278 353.623 366.002 355.304 368.718C355.539 369.084 355.447 369.323 355.03 369.437L278.729 389.939C278.416 390.017 278.281 389.9 278.324 389.586C279.718 378.869 283.183 368.845 288.721 359.512C294.729 349.396 299.683 341.905 303.584 337.038Z"
                    fill="#38A276"
                ></path>
                <path
                    d="M392.017 387.392C392.292 379.152 393.519 370.05 396.367 362.15C396.399 362.065 396.453 361.99 396.525 361.934C396.596 361.878 396.682 361.842 396.772 361.832C396.863 361.821 396.954 361.835 397.037 361.873C397.12 361.91 397.19 361.97 397.242 362.045C412.958 384.968 431.848 405.487 453.912 423.604C454.042 423.717 454.06 423.839 453.964 423.97V423.983C453.86 424.131 453.729 424.161 453.572 424.074C434.269 412.861 414.077 401.221 392.997 389.155C392.689 388.978 392.435 388.72 392.263 388.41C392.09 388.099 392.005 387.747 392.017 387.392Z"
                    fill="#4A73AB"
                ></path>
                <path
                    d="M184.666 478.96C182.054 480.344 179.56 481.689 177.849 478.503C175.916 474.912 175.955 470.72 180.748 469.793C182.646 469.427 184.37 468.957 185.92 468.382C190.631 466.65 195.037 465.435 199.138 464.739C208.289 463.189 217.797 461.496 227.662 459.659C230.649 459.111 233.596 458.815 236.504 458.771C241.049 458.693 246.587 458.301 250.806 460.051C253.078 461 253.039 461.844 250.688 462.584C239.234 466.175 226.761 464.87 215.254 468.722C211.084 470.123 207.166 471.569 203.5 473.057C195.193 476.427 191.641 485.541 188.898 493.311C186.782 499.327 184.17 505.164 181.062 510.823C180.998 510.94 180.967 511.072 180.972 511.205C180.977 511.339 181.018 511.468 181.09 511.58C181.162 511.692 181.263 511.783 181.382 511.842C181.501 511.902 181.634 511.929 181.767 511.92C187.583 511.476 193.678 510.928 200.052 510.275C203.935 509.874 207.414 509.169 210.487 508.159C215.777 506.409 223.248 504.307 228.589 506.226C231.149 507.149 231.093 507.85 228.42 508.329C226.06 508.755 223.953 509.665 222.098 511.058C221.283 511.676 220.338 512.088 219.342 512.26C206.63 514.523 194.236 516.778 182.159 519.024C176.778 520.029 174.923 529.105 173.983 533.702C172.598 540.506 170.195 549.647 174.074 555.81C180.056 565.291 196.761 558.109 204.297 553.59C212.551 548.645 220.823 543.692 229.112 538.73C231.376 537.38 233.518 535.831 235.538 534.081C236.025 533.654 236.548 533.602 237.105 533.924C237.775 534.316 238.302 534.781 238.685 535.321C238.858 535.561 238.936 535.856 238.905 536.15C238.873 536.444 238.735 536.716 238.515 536.914C226.826 547.662 213.87 555.066 200.352 563.058C194.623 566.453 189.603 568.442 185.293 569.026C182.829 569.357 179.499 568.995 175.302 567.942C169.163 566.388 162.751 561.935 162.463 555.131C162.35 552.25 162.577 549.734 163.142 547.583C164.893 540.949 166.821 533.389 168.928 524.9C168.982 524.684 168.992 524.458 168.956 524.238C168.92 524.018 168.839 523.808 168.719 523.621C168.599 523.433 168.442 523.273 168.258 523.149C168.074 523.026 167.866 522.942 167.648 522.902C164.187 522.249 158.062 525.24 154.679 526.494C152.642 527.251 150.761 526.968 149.037 525.645C139.046 518.045 165.663 514.101 168.719 513.67C171.932 513.226 173.878 510.928 175.015 508.042C178.785 498.491 182.355 489.102 185.724 479.874C185.778 479.731 185.787 479.576 185.75 479.428C185.712 479.28 185.63 479.147 185.515 479.047C185.399 478.948 185.256 478.886 185.104 478.87C184.953 478.854 184.8 478.886 184.666 478.96ZM503.451 527.029C499.628 538.434 495.876 548.941 492.192 558.553C491.844 559.458 492.092 559.689 492.937 559.245C493.242 559.088 493.472 559.406 493.629 560.198C493.707 560.607 493.716 561.016 493.655 561.426C493.054 565.996 489.319 573.648 483.52 572.395C482.887 572.26 482.322 571.905 481.923 571.392C481.524 570.879 481.318 570.24 481.339 569.587C481.435 566.967 481.875 564.516 482.658 562.235C484.582 556.559 486.411 550.565 488.144 544.253C489.476 539.404 491.544 533.458 494.347 526.415C499.781 512.773 504.335 501.112 508.009 491.431C510.9 483.831 513.325 475.874 515.284 467.56C516.024 464.399 517.974 463.211 521.135 463.995L522.95 464.452C526.224 465.27 527.16 467.216 525.758 470.289C523.982 474.193 521.892 477.941 520.234 481.976C514.113 496.907 508.518 511.924 503.451 527.029ZM460.181 522.236C461.774 521.444 463.368 520.443 464.961 519.233C466.946 517.727 468.979 516.847 471.06 516.595C473.376 516.316 475.767 516.303 478.231 516.556C481.165 516.861 483.446 518.254 485.074 520.735C491.187 530.059 484.839 544.044 478.975 551.54C471.548 561.021 463.115 568.66 453.677 574.458C450.255 576.547 445.135 578.624 441.23 577.279C436.933 575.803 435.588 570.175 436.437 566.231C437.769 560.137 440.594 555.388 444.913 551.984C445.199 551.759 445.54 551.612 445.901 551.559C446.262 551.506 446.63 551.548 446.969 551.682C447.309 551.815 447.607 552.035 447.835 552.319C448.063 552.604 448.213 552.943 448.27 553.303C448.444 554.409 448.309 555.475 447.865 556.502C446.489 559.689 445.131 563.027 443.79 566.518C443.653 566.875 443.609 567.26 443.662 567.638C443.715 568.015 443.864 568.373 444.094 568.678C444.324 568.982 444.628 569.223 444.977 569.378C445.326 569.532 445.708 569.595 446.088 569.561C451.704 569.065 457.778 563.789 461.526 559.976C467.76 553.656 473.05 546.582 477.395 538.756C479.184 535.517 480.425 531.299 479.066 527.721C477.199 522.798 469.898 526.716 467.325 528.635C463.833 531.238 460.364 533.358 456.916 534.995C456.562 535.163 456.28 535.45 456.119 535.804L453.559 541.498C452.445 543.979 450.694 544.567 448.309 543.261C447.072 542.582 445.884 541.925 444.743 541.289C443.002 540.314 442.575 538.934 443.463 537.149C450.638 522.698 458.082 507.188 465.797 490.621C467.312 487.37 467.913 484.484 468.291 481.023C468.544 478.681 469.824 477.301 472.131 476.884C473.08 476.709 474.021 476.649 474.952 476.701C477.591 476.849 478.892 478.246 478.858 480.893C478.797 484.14 477.904 487.117 476.18 489.825C470.877 498.121 465.353 508.742 459.606 521.688C459.284 522.411 459.476 522.593 460.181 522.236ZM369.827 556.581C370.367 555.118 370.075 554.931 368.952 556.019C363.014 561.756 356.209 566.392 348.538 569.927C344.315 571.877 340.598 572.643 337.385 572.225C329.77 571.246 323.893 564.207 323.135 556.568C322.587 551.005 322.731 546.473 325.225 541.171C331.338 528.152 340.859 516.582 351.699 507.689C358.556 502.061 374.947 505.391 367.424 518.018C364.786 522.45 361.695 526.189 358.151 529.236C350.567 535.748 342.626 542.329 334.328 548.981C331.377 551.344 331.586 555.301 333.218 558.396C340.82 572.8 361.599 556.085 367.398 549.412C368.451 548.201 369.71 547.918 371.172 548.563C371.326 548.629 371.491 548.663 371.657 548.663C371.824 548.664 371.989 548.631 372.141 548.566C372.294 548.501 372.432 548.406 372.546 548.287C372.66 548.167 372.748 548.026 372.805 547.871C375.905 539.487 378.922 531.077 381.856 522.641C382.679 520.251 385.866 514.231 389.34 516.7C396.34 521.649 386.689 536.353 383.267 541.42C382.918 541.942 382.87 542.49 383.123 543.065L383.267 543.391C383.362 543.618 383.497 543.644 383.672 543.47C385.596 541.616 387.141 539.57 388.308 537.332C390.842 532.461 394.76 527.943 398.247 523.843C399.588 522.267 401.538 521.327 404.098 521.022C405.927 520.8 407.768 519.847 409.388 521.257C409.754 521.57 409.971 521.962 410.041 522.432C411.021 529.066 408.63 536.745 407.05 543.209C406.963 543.557 407.059 543.84 407.337 544.057C407.424 544.136 407.538 544.175 407.677 544.175C407.781 544.184 407.864 544.149 407.925 544.071C416.728 532.77 425.753 522.889 435 514.427C437.09 512.521 441.491 512.207 443.555 514.61C445.47 516.856 445.566 519.485 443.842 522.498C439.297 530.463 435.366 538.586 432.048 546.865C429.71 552.715 429.305 558.331 428.718 564.429C428.326 568.477 426.223 570.136 422.305 569.744C418.735 569.387 417.159 567.428 417.577 563.868C418.974 551.945 426.471 543.339 429.318 532.057C429.719 530.437 429.327 530.211 428.143 531.377C424.625 534.842 421.33 538.812 418.256 543.287C415.435 547.414 411.83 550.613 408.683 554.557C405.496 558.526 402.4 562.183 399.397 565.526C395.596 569.757 391.586 565.866 391.652 561.595C391.782 554.008 396.327 546.813 399.488 539.996C399.845 539.23 399.801 538.481 399.357 537.75C399.105 537.341 398.804 537.302 398.456 537.633C388.339 547.218 380.885 557.73 376.096 569.169C374.677 572.547 372.213 573.962 368.704 573.413C368.177 573.33 367.69 573.08 367.315 572.699C366.939 572.319 366.693 571.828 366.614 571.298C365.883 566.44 368.155 561.125 369.827 556.581ZM352.953 516.517C348.46 520.748 343.314 526.494 339.762 532.344C338.638 534.189 339 534.542 340.846 533.402C343.162 531.965 345.452 530.581 347.716 529.249C353.684 525.723 357.981 520.421 360.868 514.192C360.93 514.057 360.953 513.907 360.935 513.759C360.916 513.612 360.856 513.472 360.763 513.357C360.669 513.241 360.545 513.154 360.404 513.106C360.263 513.057 360.112 513.049 359.966 513.082C357.511 513.657 354.768 514.806 352.953 516.517ZM509.811 544.776C514.435 530.45 523.734 519.899 534.822 509.504C539.96 504.681 545.663 503.75 551.932 506.71C556.503 508.864 555.524 514.571 553.342 518.123C550.574 522.628 547.047 526.898 542.855 530.176C535.184 536.166 527.417 542.43 519.555 548.968C517.569 550.613 518.079 554.282 518.901 556.346C521.679 563.345 526.838 565.517 534.378 562.862C539.063 561.217 542.885 558.914 545.846 555.954C547.491 554.3 549.089 552.432 550.639 550.352C552.119 548.358 554.069 547.67 556.49 548.288L557.705 548.602C559.96 549.176 560.308 550.33 558.75 552.062C553.116 558.322 546.277 563.68 538.231 568.138C534.513 570.192 531.244 571.307 528.423 571.481C520.9 571.925 510.83 566.362 509.197 558.513C508.205 553.708 508.409 549.129 509.811 544.776ZM526.568 533.611C531.662 530.96 537.186 528.27 540.674 523.425C542.781 520.491 544.605 517.609 546.146 514.78C546.255 514.579 546.303 514.349 546.285 514.12C546.266 513.891 546.182 513.671 546.042 513.487C545.911 513.313 545.741 513.204 545.532 513.161C545.314 513.108 545.105 513.121 544.905 513.2C536.677 516.295 530.852 524.979 525.811 532.07C525.393 532.653 525.462 533.153 526.02 533.571C526.093 533.63 526.184 533.665 526.282 533.672C526.379 533.679 526.479 533.657 526.568 533.611ZM314.672 521.74C312.517 530.476 309.996 538.612 308.155 547.831C305.961 558.788 301.585 567.837 293.161 574.262C290.558 576.247 287.493 577.331 283.967 577.514C280.832 577.671 278.768 576.265 277.776 573.296C277.288 571.859 276.94 570.358 276.731 568.791C276.339 565.918 277.528 564.908 280.296 565.761C284.267 566.989 286.548 567.441 287.14 567.119C292.46 564.229 295.782 559.767 297.106 553.734C299.718 541.868 302.473 530.032 305.373 518.227C306.305 514.44 308.264 511.511 311.25 509.439C314.528 507.167 321.411 506.396 323.083 511.137C324.794 515.994 323.462 522.994 316.226 520.852C316.066 520.805 315.898 520.791 315.732 520.81C315.566 520.829 315.405 520.882 315.26 520.965C315.115 521.048 314.988 521.159 314.887 521.293C314.786 521.426 314.713 521.578 314.672 521.74Z"
                    fill="#cdd6f4"
                ></path>
                <path
                    d="M274.485 535.791C275.19 533.946 274.781 533.658 273.257 534.929C270.706 537.071 268.429 539.217 266.426 541.367C261.907 546.208 257.419 550.918 252.961 555.497C248.807 559.741 245.581 564.481 242.081 569.195C241.54 569.93 240.806 570.447 240.004 570.658C239.343 570.841 238.694 570.497 238.058 569.626C236.569 567.589 234.998 565.635 233.344 563.763C233.004 563.38 232.987 562.984 233.291 562.575C233.997 561.621 235.041 560.903 235.747 559.95C241.297 552.532 242.969 542.151 243.857 533.088C244.445 527.016 248.167 523.764 254.254 525.057C254.711 525.154 255.142 525.351 255.516 525.632C255.889 525.914 256.196 526.275 256.416 526.688C256.635 527.101 256.761 527.558 256.784 528.025C256.808 528.492 256.729 528.959 256.552 529.392C254.489 534.459 250.688 540.688 250.244 546.121C250.174 546.983 250.444 547.109 251.054 546.499C259.5 538.238 267.78 530.045 275.895 521.923C278.416 519.403 281.407 517.065 284.776 515.642C285.18 515.473 285.613 515.386 286.05 515.388C286.487 515.389 286.919 515.479 287.32 515.65C287.721 515.822 288.083 516.073 288.384 516.388C288.686 516.703 288.92 517.075 289.073 517.483C289.948 519.794 289.544 521.818 288.695 524.091C283.792 537.245 278.451 550.217 272.669 563.006C270.697 567.367 269.678 571.977 268.568 576.56C268.202 578.084 267.24 578.767 265.682 578.611L262.012 578.232C260.871 578.11 260.462 577.501 260.784 576.404C265.05 562.17 269.617 548.632 274.485 535.791Z"
                    fill="#cdd6f4"
                ></path>
                <path
                    d="M39.7585 651.752C44.1991 653.972 49.8805 656.349 49.9066 662.134C49.9502 670.526 49.9589 679.794 49.9327 689.936C49.9197 694.937 46.4586 697.549 41.7437 697.536C27.5598 697.493 14.164 697.48 1.5561 697.497C1.36212 697.497 1.17609 697.421 1.03892 697.287C0.90176 697.152 0.824707 696.969 0.824707 696.779L0.837761 609.599C0.837745 609.504 0.856757 609.409 0.893671 609.321C0.930585 609.233 0.984661 609.153 1.05275 609.086C1.12085 609.02 1.20159 608.967 1.29026 608.932C1.37892 608.896 1.47374 608.879 1.56916 608.881C14.9084 608.933 28.3261 608.92 41.8221 608.842C46.3541 608.815 49.3973 611.754 49.4364 616.442C49.4887 624.495 49.4843 632.661 49.4234 640.94C49.3842 646.307 44.1991 648.866 39.8238 650.551C39.7029 650.594 39.5976 650.673 39.5209 650.776C39.4441 650.879 39.3995 651.002 39.3926 651.13C39.3856 651.258 39.4166 651.386 39.4817 651.496C39.5468 651.607 39.6431 651.696 39.7585 651.752ZM26.3974 645.615C28.3696 645.51 32.1572 642.82 33.6461 641.58C34.0292 641.258 34.2208 640.853 34.2208 640.365L34.1947 621.117C34.1947 620.655 33.9639 620.425 33.5024 620.425L16.7326 620.438C16.245 620.438 16.0012 620.677 16.0012 621.156L15.962 644.975C15.9619 645.164 16.0353 645.347 16.1669 645.483C16.2985 645.619 16.4779 645.699 16.6673 645.706C19.8018 645.819 23.0452 645.789 26.3974 645.615ZM33.7245 660.815C31.256 659.287 28.4741 657.198 25.5093 657.08C22.5489 656.967 19.6582 656.945 16.8371 657.015C16.2624 657.032 15.9751 657.328 15.9751 657.903L15.9881 685.418C15.9881 685.556 16.0432 685.689 16.1411 685.787C16.2391 685.885 16.372 685.94 16.5105 685.94L33.5939 685.979C33.8225 685.979 34.0417 685.887 34.2034 685.723C34.3651 685.559 34.4559 685.336 34.4559 685.104L34.4951 662.186C34.495 661.911 34.424 661.64 34.2891 661.4C34.1542 661.16 33.9597 660.958 33.7245 660.815ZM121.753 680.86L104.513 680.912C104.384 680.914 104.26 680.96 104.162 681.044C104.065 681.127 103.999 681.243 103.978 681.369L101.366 697.001C101.344 697.128 101.279 697.243 101.181 697.327C101.083 697.41 100.959 697.457 100.83 697.458L86.594 697.497C86.512 697.497 86.431 697.478 86.3571 697.443C86.2832 697.408 86.2181 697.356 86.1668 697.292C86.1154 697.228 86.079 697.154 86.0603 697.074C86.0415 696.994 86.0409 696.911 86.0585 696.831L105.101 609.09C105.128 608.968 105.195 608.858 105.293 608.78C105.39 608.702 105.511 608.659 105.636 608.659H120.878C121.003 608.659 121.124 608.702 121.222 608.78C121.319 608.858 121.387 608.968 121.414 609.09L140.312 696.805C140.33 696.885 140.329 696.968 140.311 697.048C140.292 697.128 140.256 697.202 140.204 697.266C140.153 697.33 140.088 697.382 140.014 697.417C139.94 697.452 139.859 697.471 139.777 697.471L125.515 697.484C125.384 697.486 125.256 697.441 125.156 697.357C125.055 697.273 124.988 697.156 124.966 697.027L122.302 681.317C122.28 681.188 122.213 681.071 122.112 680.987C122.011 680.903 121.884 680.858 121.753 680.86ZM112.741 633.183L106.316 668.454C106.304 668.52 106.307 668.586 106.324 668.65C106.341 668.714 106.372 668.774 106.414 668.825C106.456 668.876 106.509 668.917 106.569 668.945C106.628 668.974 106.693 668.989 106.76 668.99L119.063 668.977C119.698 668.977 119.96 668.668 119.846 668.05L113.512 633.183C113.251 631.773 112.994 631.773 112.741 633.183ZM192.79 685.718H210.775C211.21 685.718 211.428 685.496 211.428 685.052L211.454 609.416C211.454 609.274 211.509 609.138 211.607 609.038C211.705 608.937 211.838 608.881 211.976 608.881L226.121 608.92C226.284 608.92 226.44 608.986 226.555 609.103C226.67 609.221 226.735 609.38 226.735 609.547V689.636C226.722 694.572 223.901 697.497 219.212 697.497C207.475 697.471 195.803 697.471 184.196 697.497C179.651 697.51 176.621 694.285 176.621 689.623C176.604 662.008 176.595 635.268 176.595 609.403C176.595 609.27 176.648 609.143 176.743 609.047C176.839 608.952 176.968 608.897 177.104 608.894L191.406 608.842C191.596 608.842 191.779 608.917 191.914 609.052C192.048 609.187 192.124 609.369 192.124 609.56V685.052C192.124 685.496 192.346 685.718 192.79 685.718ZM266.531 609.638C266.531 609.537 266.55 609.437 266.589 609.343C266.628 609.25 266.685 609.165 266.756 609.093C266.828 609.022 266.913 608.965 267.006 608.926C267.1 608.888 267.2 608.868 267.301 608.868L298.764 608.75C301.135 608.741 303.484 609.192 305.677 610.077C307.87 610.961 309.865 612.262 311.547 613.905C313.229 615.548 314.566 617.501 315.481 619.653C316.396 621.804 316.871 624.112 316.879 626.445L317.062 679.698C317.079 684.408 315.194 688.932 311.821 692.275C308.449 695.618 303.865 697.506 299.078 697.523L267.615 697.628C267.412 697.628 267.218 697.548 267.074 697.407C266.93 697.265 266.847 697.072 266.844 696.87L266.531 609.638ZM282.229 620.96V685.261C282.229 685.393 282.282 685.519 282.375 685.612C282.468 685.705 282.594 685.757 282.726 685.757H293.684C295.689 685.757 297.613 684.962 299.031 683.547C300.449 682.131 301.246 680.211 301.246 678.209V628.012C301.246 626.01 300.449 624.09 299.031 622.674C297.613 621.259 295.689 620.464 293.684 620.464H282.726C282.594 620.464 282.468 620.516 282.375 620.609C282.282 620.702 282.229 620.828 282.229 620.96Z"
                    fill="#cdd6f4"
                ></path>
                <path
                    d="M371.068 608.894H357.067C356.706 608.894 356.414 609.186 356.414 609.547V696.805C356.414 697.166 356.706 697.458 357.067 697.458H371.068C371.429 697.458 371.721 697.166 371.721 696.805V609.547C371.721 609.186 371.429 608.894 371.068 608.894Z"
                    fill="#cdd6f4"
                ></path>
                <path
                    d="M457.503 649.937L446.506 688.526C446.416 688.841 446.224 689.119 445.96 689.317C445.696 689.515 445.375 689.622 445.044 689.623L438.944 689.649C438.448 689.649 438.13 689.414 437.991 688.944L427.137 650.773C426.928 650.033 426.824 650.046 426.824 650.812L426.955 696.792C426.955 696.972 426.883 697.145 426.756 697.272C426.628 697.399 426.456 697.471 426.275 697.471L412.562 697.497C412.126 697.497 411.909 697.275 411.909 696.831L411.922 609.73C411.922 609.615 411.944 609.502 411.989 609.397C412.033 609.291 412.097 609.196 412.179 609.115C412.26 609.035 412.357 608.972 412.463 608.929C412.569 608.887 412.683 608.866 412.797 608.868L425.648 608.894C426.214 608.902 426.585 609.177 426.759 609.716L441.818 656.976C442.044 657.698 442.275 657.703 442.51 656.989L457.595 609.677C457.76 609.164 458.113 608.907 458.653 608.907L471.426 608.894C471.992 608.894 472.275 609.181 472.275 609.756V696.492C472.275 696.744 472.175 696.987 471.996 697.166C471.817 697.344 471.574 697.445 471.322 697.445L458.431 697.484C457.873 697.484 457.595 697.21 457.595 696.661L457.686 649.963C457.686 649.493 457.625 649.485 457.503 649.937ZM562.811 690.362C562.813 691.293 562.631 692.216 562.276 693.077C561.921 693.937 561.4 694.72 560.743 695.38C560.085 696.039 559.304 696.563 558.445 696.921C557.585 697.279 556.663 697.464 555.732 697.465L519.423 697.529C518.492 697.53 517.569 697.348 516.708 696.994C515.847 696.639 515.064 696.118 514.405 695.461C513.745 694.803 513.221 694.022 512.863 693.163C512.505 692.303 512.32 691.381 512.319 690.45L512.189 615.99C512.187 615.058 512.369 614.136 512.724 613.275C513.079 612.414 513.6 611.632 514.257 610.972C514.915 610.312 515.695 609.789 516.555 609.431C517.415 609.073 518.337 608.888 519.268 608.886L555.577 608.823C556.508 608.821 557.431 609.003 558.292 609.358C559.153 609.713 559.935 610.234 560.595 610.891C561.255 611.548 561.779 612.329 562.136 613.189C562.494 614.049 562.679 614.97 562.681 615.902L562.811 690.362ZM547.504 620.921C547.504 620.789 547.452 620.663 547.359 620.57C547.266 620.477 547.14 620.425 547.008 620.425H528.279C528.147 620.425 528.021 620.477 527.928 620.57C527.835 620.663 527.783 620.789 527.783 620.921V685.222C527.783 685.353 527.835 685.48 527.928 685.573C528.021 685.666 528.147 685.718 528.279 685.718H547.008C547.14 685.718 547.266 685.666 547.359 685.573C547.452 685.48 547.504 685.353 547.504 685.222V620.921ZM617.549 646.542L617.627 696.635C617.627 697.184 617.353 697.462 616.804 697.471L602.895 697.484C602.801 697.484 602.711 697.447 602.645 697.381C602.579 697.315 602.542 697.225 602.542 697.131L602.686 610.004C602.686 609.85 602.716 609.698 602.775 609.556C602.835 609.414 602.921 609.285 603.031 609.177C603.14 609.069 603.27 608.984 603.412 608.926C603.555 608.869 603.707 608.84 603.861 608.842L615.341 608.907C615.925 608.916 616.334 609.185 616.569 609.716L638.028 658.974C638.376 659.757 638.55 659.723 638.55 658.869L638.524 609.73C638.524 609.494 638.618 609.268 638.784 609.102C638.951 608.935 639.177 608.842 639.412 608.842L652.63 608.868C652.82 608.868 653.003 608.943 653.137 609.078C653.272 609.213 653.348 609.395 653.348 609.586L653.322 696.596C653.322 697.188 653.026 697.484 652.434 697.484H640.522C640.329 697.484 640.14 697.428 639.977 697.321C639.815 697.214 639.687 697.062 639.608 696.883L618.084 646.424C617.727 645.597 617.549 645.637 617.549 646.542ZM720.754 621.639L720.728 696.518C720.728 696.77 720.627 697.013 720.449 697.192C720.27 697.37 720.027 697.471 719.774 697.471L705.799 697.484C705.612 697.484 705.433 697.41 705.301 697.277C705.168 697.145 705.094 696.966 705.094 696.779C705.172 672.951 705.22 650.769 705.238 630.232C705.238 627.394 705.168 624.508 705.029 621.574C705.003 621.06 704.733 620.803 704.219 620.803L689.134 620.79C688.908 620.79 688.794 620.677 688.794 620.451L688.86 609.273C688.86 609.072 688.96 608.972 689.16 608.972L736.544 608.959C736.744 608.959 736.849 609.064 736.858 609.273C737.014 615.123 736.932 618.897 736.609 620.594C736.592 620.664 736.549 620.703 736.479 620.712L721.538 620.843C721.015 620.851 720.754 621.117 720.754 621.639Z"
                    fill="#cdd6f4"
                ></path>
                <path
                    d="M222.373 769.934L221.053 774.948C221.005 775.134 220.897 775.298 220.746 775.416C220.595 775.534 220.409 775.599 220.218 775.601L213.113 775.719C212.974 775.721 212.837 775.69 212.713 775.629C212.589 775.568 212.481 775.478 212.398 775.368C212.315 775.257 212.259 775.128 212.236 774.991C212.213 774.855 212.222 774.715 212.264 774.583L222.777 741.884C222.833 741.706 222.944 741.55 223.095 741.44C223.245 741.329 223.427 741.27 223.613 741.27L231.711 741.348C231.894 741.35 232.071 741.409 232.219 741.516C232.366 741.624 232.476 741.775 232.534 741.949L242.982 774.53C243.023 774.661 243.033 774.8 243.01 774.936C242.987 775.071 242.933 775.199 242.852 775.31C242.771 775.42 242.664 775.51 242.542 775.572C242.419 775.634 242.284 775.667 242.146 775.666L234.963 775.693C234.767 775.692 234.577 775.627 234.424 775.506C234.27 775.385 234.161 775.216 234.114 775.027L232.847 769.96C232.8 769.77 232.691 769.601 232.538 769.48C232.384 769.36 232.194 769.294 231.998 769.294L223.221 769.281C223.028 769.28 222.839 769.344 222.685 769.462C222.532 769.58 222.422 769.746 222.373 769.934ZM224.005 763.744C223.987 763.813 223.985 763.886 224 763.957C224.015 764.027 224.045 764.093 224.089 764.15C224.133 764.207 224.19 764.253 224.255 764.284C224.319 764.316 224.39 764.332 224.462 764.331L230.548 764.305C230.62 764.306 230.691 764.289 230.756 764.258C230.821 764.227 230.877 764.181 230.921 764.124C230.966 764.067 230.996 764.001 231.011 763.931C231.025 763.86 231.024 763.787 231.006 763.718L227.923 752.239C227.899 752.136 227.84 752.045 227.757 751.98C227.674 751.915 227.572 751.879 227.466 751.879C227.361 751.879 227.258 751.915 227.175 751.98C227.092 752.045 227.034 752.136 227.009 752.239L224.005 763.744ZM298.098 761.955L305.595 774.139C306.187 775.096 305.921 775.579 304.798 775.588L298.608 775.64C297.467 775.658 296.605 775.175 296.021 774.191C293.479 769.925 290.976 765.672 288.512 761.432C287.832 760.275 287.545 759.012 287.65 757.645C287.679 757.29 287.843 756.959 288.107 756.719C288.371 756.479 288.716 756.348 289.073 756.353L294.65 756.457C295.338 756.474 295.682 756.135 295.682 755.439L295.695 747.133C295.695 746.489 295.368 746.162 294.715 746.154L286.853 746.115C286.2 746.106 285.873 746.428 285.873 747.081L285.86 774.726C285.86 775.292 285.573 775.579 284.998 775.588L277.658 775.732C277.535 775.733 277.413 775.711 277.299 775.665C277.185 775.619 277.082 775.551 276.994 775.465C276.907 775.378 276.837 775.276 276.79 775.162C276.742 775.049 276.718 774.927 276.718 774.804L276.744 741.884C276.744 741.816 276.758 741.748 276.784 741.686C276.81 741.623 276.849 741.566 276.898 741.519C276.946 741.471 277.004 741.434 277.067 741.409C277.131 741.384 277.198 741.373 277.266 741.374C284.694 741.496 291.698 741.527 298.281 741.466C299.97 741.448 301.555 741.609 303.035 741.949C303.49 742.053 303.896 742.309 304.185 742.674C304.475 743.04 304.631 743.493 304.628 743.96C304.62 748.165 304.633 752.5 304.668 756.966C304.694 760.048 301.873 760.61 299.352 760.127C297.567 759.796 297.149 760.405 298.098 761.955ZM359.366 746.768C359.357 746.315 359.126 746.093 358.673 746.102L349.805 746.128C349.622 746.128 349.446 746.201 349.316 746.33C349.186 746.46 349.113 746.636 349.113 746.82L349.061 774.674C349.052 775.327 348.721 775.649 348.068 775.64L341.094 775.627C340.389 775.618 340.036 775.266 340.036 774.569V742.145C340.036 741.657 340.28 741.418 340.767 741.426L365.439 741.544C366.157 741.547 366.845 741.835 367.351 742.344C367.858 742.853 368.142 743.542 368.142 744.26V757.789C368.142 758.399 367.903 758.984 367.475 759.419C367.048 759.854 366.467 760.103 365.857 760.113L361.573 760.179C361.463 760.182 361.355 760.214 361.261 760.271C361.167 760.328 361.089 760.408 361.036 760.504C360.983 760.599 360.957 760.706 360.959 760.814C360.962 760.922 360.993 761.027 361.05 761.119C364.011 765.959 366.919 770.73 369.775 775.431C369.78 775.441 369.783 775.452 369.784 775.463C369.785 775.474 369.783 775.485 369.779 775.494C369.775 775.504 369.769 775.511 369.762 775.516C369.754 775.521 369.745 775.523 369.736 775.523C366.723 775.732 363.715 775.758 360.711 775.601C360.563 775.592 360.445 775.523 360.358 775.392C356.997 770.334 353.85 764.954 350.915 759.252C350.762 758.951 350.69 758.615 350.704 758.278C350.719 757.941 350.821 757.613 350.999 757.327C351.178 757.04 351.428 756.805 351.724 756.643C352.021 756.482 352.354 756.4 352.692 756.405L358.595 756.496C359.161 756.505 359.44 756.226 359.431 755.66L359.366 746.768ZM411.948 769.999L410.746 774.922C410.7 775.12 410.588 775.297 410.43 775.425C410.271 775.553 410.075 775.624 409.871 775.627L402.779 775.732C402.634 775.734 402.491 775.702 402.361 775.639C402.231 775.575 402.118 775.481 402.031 775.365C401.944 775.249 401.886 775.114 401.862 774.971C401.838 774.828 401.848 774.682 401.891 774.543L412.379 742.014C412.437 741.828 412.554 741.666 412.711 741.551C412.869 741.435 413.059 741.374 413.254 741.374L421.299 741.387C421.494 741.387 421.684 741.448 421.842 741.564C421.999 741.679 422.116 741.841 422.174 742.027L432.597 774.491C432.642 774.629 432.655 774.776 432.632 774.919C432.61 775.063 432.553 775.199 432.468 775.317C432.382 775.434 432.27 775.529 432.14 775.595C432.01 775.66 431.867 775.694 431.722 775.693L424.538 775.653C424.331 775.652 424.13 775.581 423.968 775.45C423.807 775.319 423.695 775.138 423.65 774.935L422.566 770.025C422.522 769.822 422.409 769.641 422.248 769.51C422.087 769.38 421.886 769.308 421.678 769.307H412.836C412.632 769.307 412.434 769.375 412.273 769.5C412.112 769.625 411.997 769.801 411.948 769.999ZM413.607 763.809C413.59 763.869 413.588 763.932 413.601 763.993C413.613 764.054 413.639 764.111 413.677 764.16C413.715 764.21 413.763 764.249 413.819 764.277C413.875 764.304 413.936 764.318 413.998 764.318H420.267C420.33 764.318 420.391 764.304 420.447 764.277C420.502 764.249 420.551 764.21 420.589 764.16C420.627 764.111 420.653 764.054 420.665 763.993C420.677 763.932 420.675 763.869 420.659 763.809L417.525 751.939C417.502 751.852 417.451 751.775 417.38 751.72C417.31 751.666 417.223 751.636 417.133 751.636C417.043 751.636 416.956 751.666 416.885 751.72C416.814 751.775 416.764 751.852 416.741 751.939L413.607 763.809ZM484.095 746.088L476.154 746.193C475.51 746.193 475.187 746.515 475.187 747.159V750.842C475.187 751.469 475.462 751.934 476.01 752.239C480.817 754.938 485.671 757.658 490.573 760.401C495.17 762.973 494.191 768.197 493.877 772.506C493.738 774.43 492.632 775.41 490.56 775.444C482.906 775.566 475.823 775.592 469.31 775.523C468.586 775.512 467.891 775.232 467.363 774.737C466.834 774.242 466.508 773.568 466.45 772.846C466.311 771.07 466.132 768.858 465.914 766.212C465.801 764.775 466.467 764.062 467.913 764.07L474.299 764.083C474.978 764.083 475.309 764.419 475.292 765.089L475.227 769.581C475.209 770.452 475.636 770.887 476.507 770.887L483.86 770.809C484.739 770.8 485.17 770.36 485.153 769.49L485.022 765.311C485.013 764.823 484.791 764.462 484.356 764.227C479.497 761.641 474.447 758.821 469.206 755.765C465.183 753.414 465.758 747.969 466.411 743.999C466.518 743.349 466.846 742.756 467.341 742.318C467.836 741.881 468.466 741.626 469.127 741.596C476.467 741.309 483.934 741.339 491.526 741.688C492.186 741.718 492.809 742 493.266 742.477C493.723 742.953 493.979 743.587 493.982 744.247L494.034 751.247C494.034 751.961 493.677 752.317 492.963 752.317L486.132 752.344C485.323 752.344 484.935 751.939 484.97 751.129L485.114 747.133C485.14 746.428 484.8 746.08 484.095 746.088Z"
                    fill="#cdd6f4"
                ></path>
                <path
                    d="M735.996 797.331H1.93489C1.53817 797.331 1.21655 797.652 1.21655 798.049V802.855C1.21655 803.251 1.53817 803.573 1.93489 803.573H735.996C736.392 803.573 736.714 803.251 736.714 802.855V798.049C736.714 797.652 736.392 797.331 735.996 797.331Z"
                    fill="#cdd6f4"
                ></path>
            </svg>